<mxfile host="65bd71144e">
    <diagram id="GIDKNpEXjCkQVpp_JcnM" name="Страница 1">
        <mxGraphModel dx="683" dy="403" grid="1" gridSize="10" guides="1" tooltips="1" connect="1" arrows="1" fold="1" page="1" pageScale="1" pageWidth="827" pageHeight="1169" math="0" shadow="0">
            <root>
                <mxCell id="0"/>
                <mxCell id="1" parent="0"/>
                <mxCell id="5" value="" style="edgeStyle=none;html=1;" parent="1" source="3" target="4" edge="1">
                    <mxGeometry relative="1" as="geometry"/>
                </mxCell>
                <mxCell id="3" value="start" style="ellipse;whiteSpace=wrap;html=1;" parent="1" vertex="1">
                    <mxGeometry x="160" y="40" width="120" height="40" as="geometry"/>
                </mxCell>
                <mxCell id="7" value="" style="edgeStyle=none;html=1;" parent="1" source="4" target="6" edge="1">
                    <mxGeometry relative="1" as="geometry"/>
                </mxCell>
                <mxCell id="4" value="lenElem&lt;br&gt;arrayInput" style="shape=parallelogram;perimeter=parallelogramPerimeter;whiteSpace=wrap;html=1;fixedSize=1;" parent="1" vertex="1">
                    <mxGeometry x="160" y="120" width="120" height="50" as="geometry"/>
                </mxCell>
                <mxCell id="9" value="" style="edgeStyle=none;html=1;" parent="1" source="6" target="8" edge="1">
                    <mxGeometry relative="1" as="geometry"/>
                </mxCell>
                <mxCell id="6" value="len = Size(arrayInput)" style="whiteSpace=wrap;html=1;" parent="1" vertex="1">
                    <mxGeometry x="160" y="200" width="120" height="30" as="geometry"/>
                </mxCell>
                <mxCell id="13" value="" style="edgeStyle=none;html=1;" parent="1" source="8" target="12" edge="1">
                    <mxGeometry relative="1" as="geometry"/>
                </mxCell>
                <mxCell id="8" value="count = 0" style="whiteSpace=wrap;html=1;" parent="1" vertex="1">
                    <mxGeometry x="160" y="250" width="120" height="30" as="geometry"/>
                </mxCell>
                <mxCell id="15" value="" style="edgeStyle=none;html=1;entryX=0.5;entryY=0;entryDx=0;entryDy=0;" parent="1" source="12" target="14" edge="1">
                    <mxGeometry relative="1" as="geometry">
                        <mxPoint x="60" y="340" as="targetPoint"/>
                        <Array as="points">
                            <mxPoint x="120" y="340"/>
                        </Array>
                    </mxGeometry>
                </mxCell>
                <mxCell id="42" value="" style="edgeStyle=none;html=1;" edge="1" parent="1" source="12" target="41">
                    <mxGeometry relative="1" as="geometry"/>
                </mxCell>
                <mxCell id="12" value="i = 0, len" style="shape=hexagon;perimeter=hexagonPerimeter2;whiteSpace=wrap;html=1;fixedSize=1;" parent="1" vertex="1">
                    <mxGeometry x="160" y="320" width="120" height="40" as="geometry"/>
                </mxCell>
                <mxCell id="14" value="Size(arrayInput[i]) &amp;lt;= lenElem" style="rhombus;whiteSpace=wrap;html=1;" parent="1" vertex="1">
                    <mxGeometry x="30" y="370" width="180" height="120" as="geometry"/>
                </mxCell>
                <mxCell id="19" value="" style="endArrow=classic;html=1;entryX=0.5;entryY=1;entryDx=0;entryDy=0;exitX=1;exitY=0.5;exitDx=0;exitDy=0;" parent="1" source="14" target="12" edge="1">
                    <mxGeometry relative="1" as="geometry">
                        <mxPoint x="210" y="420" as="sourcePoint"/>
                        <mxPoint x="300" y="419.5" as="targetPoint"/>
                        <Array as="points">
                            <mxPoint x="220" y="430"/>
                        </Array>
                    </mxGeometry>
                </mxCell>
                <mxCell id="20" value="False" style="edgeLabel;resizable=0;html=1;align=center;verticalAlign=middle;" parent="19" connectable="0" vertex="1">
                    <mxGeometry relative="1" as="geometry"/>
                </mxCell>
                <mxCell id="23" value="count++" style="rounded=0;whiteSpace=wrap;html=1;" parent="1" vertex="1">
                    <mxGeometry x="40" y="530" width="160" height="30" as="geometry"/>
                </mxCell>
                <mxCell id="25" value="" style="endArrow=classic;html=1;exitX=0.5;exitY=1;exitDx=0;exitDy=0;entryX=0.5;entryY=0;entryDx=0;entryDy=0;" parent="1" source="14" target="23" edge="1">
                    <mxGeometry relative="1" as="geometry">
                        <mxPoint x="140" y="430" as="sourcePoint"/>
                        <mxPoint x="240" y="430" as="targetPoint"/>
                    </mxGeometry>
                </mxCell>
                <mxCell id="26" value="True" style="edgeLabel;resizable=0;html=1;align=center;verticalAlign=middle;" parent="25" connectable="0" vertex="1">
                    <mxGeometry relative="1" as="geometry"/>
                </mxCell>
                <mxCell id="27" value="" style="endArrow=classic;html=1;exitX=0;exitY=0.5;exitDx=0;exitDy=0;entryX=0;entryY=0.25;entryDx=0;entryDy=0;" parent="1" source="23" target="12" edge="1">
                    <mxGeometry width="50" height="50" relative="1" as="geometry">
                        <mxPoint x="160" y="460" as="sourcePoint"/>
                        <mxPoint x="210" y="410" as="targetPoint"/>
                        <Array as="points">
                            <mxPoint x="10" y="545"/>
                            <mxPoint x="10" y="331"/>
                        </Array>
                    </mxGeometry>
                </mxCell>
                <mxCell id="33" value="Алгоритм поиска элементов массива определённой длины, запись их в новый массив и их вывод" style="text;html=1;strokeColor=none;fillColor=none;align=center;verticalAlign=middle;whiteSpace=wrap;rounded=0;" parent="1" vertex="1">
                    <mxGeometry x="10" y="10" width="560" height="20" as="geometry"/>
                </mxCell>
                <mxCell id="36" value="" style="edgeStyle=none;html=1;" edge="1" source="37" target="38" parent="1">
                    <mxGeometry relative="1" as="geometry"/>
                </mxCell>
                <mxCell id="37" value="resultArray" style="shape=document;whiteSpace=wrap;html=1;boundedLbl=1;" vertex="1" parent="1">
                    <mxGeometry x="530" y="480" width="80" height="50" as="geometry"/>
                </mxCell>
                <mxCell id="38" value="end" style="ellipse;whiteSpace=wrap;html=1;" vertex="1" parent="1">
                    <mxGeometry x="530" y="560" width="80" height="40" as="geometry"/>
                </mxCell>
                <mxCell id="41" value="resultArray = [ ]&lt;br&gt;count = 0" style="whiteSpace=wrap;html=1;" vertex="1" parent="1">
                    <mxGeometry x="310" y="320" width="120" height="40" as="geometry"/>
                </mxCell>
                <mxCell id="43" value="" style="edgeStyle=none;html=1;entryX=0.5;entryY=0;entryDx=0;entryDy=0;" edge="1" source="44" target="45" parent="1">
                    <mxGeometry relative="1" as="geometry">
                        <mxPoint x="300" y="430" as="targetPoint"/>
                        <Array as="points">
                            <mxPoint x="360" y="430"/>
                        </Array>
                    </mxGeometry>
                </mxCell>
                <mxCell id="44" value="i = 0, len" style="shape=hexagon;perimeter=hexagonPerimeter2;whiteSpace=wrap;html=1;fixedSize=1;" vertex="1" parent="1">
                    <mxGeometry x="400" y="410" width="120" height="40" as="geometry"/>
                </mxCell>
                <mxCell id="45" value="Size(arrayInput[i]) &amp;lt;= lenElem" style="rhombus;whiteSpace=wrap;html=1;" vertex="1" parent="1">
                    <mxGeometry x="270" y="460" width="180" height="120" as="geometry"/>
                </mxCell>
                <mxCell id="46" value="" style="endArrow=classic;html=1;entryX=0.5;entryY=1;entryDx=0;entryDy=0;exitX=1;exitY=0.5;exitDx=0;exitDy=0;" edge="1" source="45" target="44" parent="1">
                    <mxGeometry relative="1" as="geometry">
                        <mxPoint x="450" y="510" as="sourcePoint"/>
                        <mxPoint x="540" y="509.5" as="targetPoint"/>
                        <Array as="points">
                            <mxPoint x="460" y="520"/>
                        </Array>
                    </mxGeometry>
                </mxCell>
                <mxCell id="47" value="False" style="edgeLabel;resizable=0;html=1;align=center;verticalAlign=middle;" connectable="0" vertex="1" parent="46">
                    <mxGeometry relative="1" as="geometry"/>
                </mxCell>
                <mxCell id="48" value="resultArray[count] = arrayInput[i]&lt;br&gt;count++" style="rounded=0;whiteSpace=wrap;html=1;" vertex="1" parent="1">
                    <mxGeometry x="270" y="620" width="180" height="60" as="geometry"/>
                </mxCell>
                <mxCell id="49" value="" style="endArrow=classic;html=1;exitX=0.5;exitY=1;exitDx=0;exitDy=0;entryX=0.5;entryY=0;entryDx=0;entryDy=0;" edge="1" source="45" target="48" parent="1">
                    <mxGeometry relative="1" as="geometry">
                        <mxPoint x="380" y="520" as="sourcePoint"/>
                        <mxPoint x="480" y="520" as="targetPoint"/>
                    </mxGeometry>
                </mxCell>
                <mxCell id="50" value="True" style="edgeLabel;resizable=0;html=1;align=center;verticalAlign=middle;" connectable="0" vertex="1" parent="49">
                    <mxGeometry relative="1" as="geometry"/>
                </mxCell>
                <mxCell id="51" value="" style="endArrow=classic;html=1;exitX=0;exitY=0.5;exitDx=0;exitDy=0;entryX=0;entryY=0.25;entryDx=0;entryDy=0;" edge="1" source="48" target="44" parent="1">
                    <mxGeometry width="50" height="50" relative="1" as="geometry">
                        <mxPoint x="400" y="550" as="sourcePoint"/>
                        <mxPoint x="450" y="500" as="targetPoint"/>
                        <Array as="points">
                            <mxPoint x="250" y="650"/>
                            <mxPoint x="250" y="421"/>
                        </Array>
                    </mxGeometry>
                </mxCell>
                <mxCell id="52" value="" style="endArrow=classic;html=1;exitX=1;exitY=0.5;exitDx=0;exitDy=0;entryX=0.5;entryY=0;entryDx=0;entryDy=0;" edge="1" parent="1" source="41" target="44">
                    <mxGeometry width="50" height="50" relative="1" as="geometry">
                        <mxPoint x="250" y="430" as="sourcePoint"/>
                        <mxPoint x="300" y="380" as="targetPoint"/>
                        <Array as="points">
                            <mxPoint x="460" y="340"/>
                        </Array>
                    </mxGeometry>
                </mxCell>
                <mxCell id="53" value="" style="endArrow=classic;html=1;exitX=1;exitY=0.5;exitDx=0;exitDy=0;entryX=0.5;entryY=0;entryDx=0;entryDy=0;" edge="1" parent="1" source="44" target="37">
                    <mxGeometry width="50" height="50" relative="1" as="geometry">
                        <mxPoint x="250" y="530" as="sourcePoint"/>
                        <mxPoint x="300" y="480" as="targetPoint"/>
                        <Array as="points">
                            <mxPoint x="570" y="430"/>
                        </Array>
                    </mxGeometry>
                </mxCell>
            </root>
        </mxGraphModel>
    </diagram>
</mxfile>